<svg xmlns="http://www.w3.org/2000/svg" width="16" height="18" viewBox="0 0 16 18">
    <path fill="#000" fill-rule="evenodd" d="M1.23 16.714H4v-2.893H1.23v2.893zm3.385 0h3.077v-2.893H4.615v2.893zM1.231 13.18H4V9.964H1.23v3.215zm3.384 0h3.077V9.964H4.615v3.215zM1.231 9.32H4V6.43H1.23V9.32zm7.077 7.393h3.077v-2.893H8.308v2.893zM4.615 9.321h3.077V6.43H4.615V9.32zM12 16.714h2.77v-2.893H12v2.893zM8.308 13.18h3.077V9.964H8.308v3.215zM4.923 4.5V1.607a.316.316 0 0 0-.091-.226.29.29 0 0 0-.217-.095H4a.29.29 0 0 0-.216.095.316.316 0 0 0-.092.226V4.5c0 .087.03.162.092.226A.29.29 0 0 0 4 4.821h.615a.29.29 0 0 0 .217-.095.316.316 0 0 0 .091-.226zM12 13.179h2.77V9.964H12v3.215zM8.308 9.32h3.077V6.43H8.308V9.32zm3.692 0h2.77V6.43H12V9.32zm.308-4.821V1.607a.316.316 0 0 0-.092-.226.29.29 0 0 0-.216-.095h-.615a.29.29 0 0 0-.217.095.316.316 0 0 0-.091.226V4.5c0 .087.03.162.091.226a.29.29 0 0 0 .217.095H12a.29.29 0 0 0 .216-.095.316.316 0 0 0 .092-.226zM16 3.857v12.857c0 .349-.122.65-.365.904a1.159 1.159 0 0 1-.866.382H1.231c-.334 0-.622-.127-.866-.382A1.263 1.263 0 0 1 0 16.714V3.857c0-.348.122-.65.365-.904.244-.254.532-.382.866-.382h1.23v-.964c0-.442.151-.82.452-1.135A1.45 1.45 0 0 1 4 0h.615c.423 0 .786.157 1.087.472.301.315.452.693.452 1.135v.964h3.692v-.964c0-.442.15-.82.452-1.135A1.45 1.45 0 0 1 11.385 0H12c.423 0 .785.157 1.087.472.3.315.451.693.451 1.135v.964h1.231c.334 0 .622.128.866.382.243.255.365.556.365.904z" opacity=".54"/>
</svg>
